<svg fill="#ffffff" xmlns="http://www.w3.org/2000/svg" viewBox="0 0 80 80" width="50px" height="50px"><path d="M 40 3 C 36.147138 3 33 6.1461005 33 10 C 33 13.853063 36.146937 17 40 17 C 43.853899 17 47 13.852862 47 10 L 47 9 L 46.796875 9 C 46.290193 5.6375064 43.499348 3 40 3 z M 40 5 C 42.772302 5 45 7.2276983 45 10 C 45 12.771138 42.772101 15 40 15 C 37.229063 15 35 12.770937 35 10 C 35 7.2278995 37.228862 5 40 5 z M 31.566406 10.208984 L 30.765625 10.609375 L 30.607422 11.492188 L 31.220703 12.146484 L 31.566406 12.208984 L 32.367188 11.806641 L 32.525391 10.925781 L 31.914062 10.271484 L 31.566406 10.208984 z M 49.849609 10.675781 L 49.048828 11.076172 L 48.890625 11.958984 L 49.501953 12.613281 L 49.849609 12.675781 L 50.650391 12.273438 L 50.808594 11.392578 L 50.197266 10.738281 L 49.849609 10.675781 z M 27.818359 11.595703 L 27.017578 11.998047 L 26.859375 12.878906 L 27.470703 13.533203 L 27.818359 13.595703 L 28.619141 13.195312 L 28.777344 12.3125 L 28.166016 11.658203 L 27.818359 11.595703 z M 53.525391 12.240234 L 52.724609 12.642578 L 52.566406 13.523438 L 53.177734 14.177734 L 53.525391 14.240234 L 54.326172 13.837891 L 54.484375 12.957031 L 53.873047 12.302734 L 53.525391 12.240234 z M 24.289062 13.466797 L 23.488281 13.869141 L 23.330078 14.751953 L 23.941406 15.40625 L 24.289062 15.466797 L 25.089844 15.066406 L 25.248047 14.183594 L 24.634766 13.529297 L 24.289062 13.466797 z M 56.966797 14.271484 L 56.166016 14.671875 L 56.007812 15.554688 L 56.619141 16.208984 L 56.966797 16.271484 L 57.767578 15.869141 L 57.925781 14.988281 L 57.314453 14.333984 L 56.966797 14.271484 z M 21.03125 15.78125 L 20.230469 16.183594 L 20.072266 17.064453 L 20.685547 17.720703 L 21.03125 17.78125 L 21.832031 17.380859 L 21.990234 16.498047 L 21.378906 15.84375 L 21.03125 15.78125 z M 60.105469 16.746094 L 59.304688 17.146484 L 59.146484 18.029297 L 59.757812 18.683594 L 60.105469 18.746094 L 60.90625 18.34375 L 61.064453 17.462891 L 60.453125 16.808594 L 60.105469 16.746094 z M 14 17 C 10.147138 17 7 20.146101 7 24 C 7 26.65208 8.4918627 28.969174 10.677734 30.15625 L 10.542969 30.902344 L 11.15625 31.556641 L 11.503906 31.619141 L 12.304688 31.216797 L 12.378906 30.802734 C 12.900532 30.927655 13.44123 31 14 31 C 17.853899 31 21 27.852862 21 24 L 21 23 L 20.796875 23 C 20.582977 21.580508 19.958324 20.294543 19.048828 19.277344 L 19.060547 19.216797 L 18.447266 18.5625 L 18.269531 18.53125 C 17.10564 17.578155 15.631774 17 14 17 z M 66 17 C 62.147138 17 59 20.146101 59 24 C 59 27.853063 62.146937 31 66 31 C 66.686734 31 67.348573 30.895029 67.976562 30.708984 L 68.201172 30.75 L 69.003906 30.347656 L 69.011719 30.306641 C 71.364314 29.175831 73 26.774653 73 24 L 73 23 L 72.796875 23 C 72.290193 19.637506 69.499348 17 66 17 z M 14 19 C 16.772302 19 19 21.227698 19 24 C 19 26.771138 16.772101 29 14 29 C 11.229063 29 9 26.770937 9 24 C 9 21.227899 11.228862 19 14 19 z M 66 19 C 68.772302 19 71 21.227698 71 24 C 71 26.771138 68.772101 29 66 29 C 63.229063 29 61 26.770937 61 24 C 61 21.227899 63.228862 19 66 19 z M 40 28 C 36.147138 28 33 31.146101 33 35 C 33 37.406629 34.227242 39.537919 36.087891 40.798828 C 32.513013 42.324977 30 45.874674 30 50 L 32 50 C 32 45.566849 35.566849 42 40 42 C 44.433151 42 48 45.566849 48 50 L 50 50 C 50 45.874674 47.486987 42.324977 43.912109 40.798828 C 45.772716 39.537878 47 37.406503 47 35 L 47 34 L 46.796875 34 C 46.290193 30.637506 43.499348 28 40 28 z M 40 30 C 42.772302 30 45 32.227698 45 35 C 45 37.771138 42.772101 40 40 40 C 37.229063 40 35 37.770937 35 35 C 35 32.227899 37.228862 30 40 30 z M 69.310547 32.589844 L 68.509766 32.992188 L 68.351562 33.873047 L 68.962891 34.527344 L 69.310547 34.589844 L 70.111328 34.189453 L 70.269531 33.306641 L 69.658203 32.652344 L 69.310547 32.589844 z M 10.509766 33.490234 L 9.7089844 33.892578 L 9.5507812 34.773438 L 10.162109 35.427734 L 10.509766 35.490234 L 11.310547 35.087891 L 11.46875 34.207031 L 10.857422 33.552734 L 10.509766 33.490234 z M 69.896484 36.542969 L 69.095703 36.945312 L 68.9375 37.828125 L 69.550781 38.482422 L 69.896484 38.542969 L 70.697266 38.142578 L 70.855469 37.259766 L 70.244141 36.605469 L 69.896484 36.542969 z M 10.042969 37.458984 L 9.2421875 37.861328 L 9.0839844 38.744141 L 9.6953125 39.398438 L 10.042969 39.458984 L 10.84375 39.058594 L 11.001953 38.175781 L 10.388672 37.521484 L 10.042969 37.458984 z M 69.957031 40.541016 L 69.15625 40.941406 L 68.998047 41.824219 L 69.611328 42.478516 L 69.957031 42.541016 L 70.757812 42.138672 L 70.916016 41.257812 L 70.304688 40.601562 L 69.957031 40.541016 z M 10.103516 41.457031 L 9.3027344 41.857422 L 9.1445312 42.740234 L 9.7558594 43.394531 L 10.103516 43.457031 L 10.904297 43.054688 L 11.0625 42.171875 L 10.451172 41.517578 L 10.103516 41.457031 z M 69.490234 44.509766 L 68.689453 44.912109 L 68.53125 45.792969 L 69.142578 46.447266 L 69.490234 46.509766 L 70.291016 46.107422 L 70.449219 45.226562 L 69.837891 44.572266 L 69.490234 44.509766 z M 10.689453 45.410156 L 9.8886719 45.810547 L 9.7304688 46.693359 L 10.34375 47.347656 L 10.689453 47.410156 L 11.492188 47.007812 L 11.648438 46.126953 L 11.037109 45.472656 L 10.689453 45.410156 z M 68.496094 48.380859 L 67.695312 48.783203 L 67.619141 49.203125 C 67.100818 49.075309 66.561279 49 66 49 C 62.147138 49 59 52.146101 59 56 C 59 58.044468 59.89145 59.883794 61.298828 61.166016 L 61.552734 61.4375 L 61.625 61.451172 C 62.825463 62.417174 64.346673 63 66 63 C 69.853899 63 73 59.852862 73 56 L 73 55 L 72.796875 55 C 72.465964 52.803974 71.156931 50.923708 69.316406 49.878906 L 69.455078 49.097656 L 68.84375 48.443359 L 68.496094 48.380859 z M 14 49 C 13.313353 49 12.651435 49.104968 12.023438 49.291016 L 11.798828 49.25 L 10.998047 49.652344 L 10.990234 49.693359 C 8.6372791 50.823758 7 53.224274 7 56 C 7 59.853063 10.146937 63 14 63 C 17.853899 63 21 59.852862 21 56 L 21 55 L 20.796875 55 C 20.290193 51.637506 17.499348 49 14 49 z M 14 51 C 16.772302 51 19 53.227698 19 56 C 19 58.771138 16.772101 61 14 61 C 11.229063 61 9 58.770937 9 56 C 9 53.227899 11.228862 51 14 51 z M 66 51 C 68.772302 51 71 53.227698 71 56 C 71 58.771138 68.772101 61 66 61 C 63.229063 61 61 58.770937 61 56 C 61 53.227899 63.228862 51 66 51 z M 19.703125 61.083984 L 18.902344 61.486328 L 18.744141 62.367188 L 19.355469 63.021484 L 19.703125 63.083984 L 20.503906 62.683594 L 20.662109 61.800781 L 20.048828 61.146484 L 19.703125 61.083984 z M 58.96875 62.21875 L 58.167969 62.619141 L 58.009766 63.501953 L 58.621094 64.15625 L 58.96875 64.21875 L 59.769531 63.816406 L 59.927734 62.935547 L 59.314453 62.28125 L 58.96875 62.21875 z M 40 63 C 36.606425 63 33.763132 65.440912 33.132812 68.65625 L 32.949219 68.748047 L 32.791016 69.630859 L 33.007812 69.861328 C 33.006887 69.907979 33 69.953136 33 70 C 33 73.853063 36.146937 77 40 77 C 43.853899 77 47 73.852862 47 70 L 47 69 L 46.796875 69 C 46.290193 65.637506 43.499348 63 40 63 z M 22.826172 63.578125 L 22.025391 63.978516 L 21.867188 64.861328 L 22.480469 65.515625 L 22.826172 65.578125 L 23.626953 65.175781 L 23.785156 64.294922 L 23.173828 63.640625 L 22.826172 63.578125 z M 55.710938 64.533203 L 54.910156 64.933594 L 54.751953 65.816406 L 55.365234 66.470703 L 55.710938 66.533203 L 56.513672 66.130859 L 56.669922 65.25 L 56.058594 64.595703 L 55.710938 64.533203 z M 40 65 C 42.772302 65 45 67.227698 45 70 C 45 72.771138 42.772101 75 40 75 C 37.229063 75 35 72.770937 35 70 C 35 67.227899 37.228862 65 40 65 z M 26.248047 65.640625 L 25.447266 66.042969 L 25.289062 66.925781 L 25.900391 67.580078 L 26.248047 67.640625 L 27.048828 67.240234 L 27.207031 66.357422 L 26.595703 65.703125 L 26.248047 65.640625 z M 52.181641 66.404297 L 51.380859 66.804688 L 51.222656 67.6875 L 51.835938 68.341797 L 52.181641 68.404297 L 52.982422 68.001953 L 53.140625 67.121094 L 52.529297 66.466797 L 52.181641 66.404297 z M 29.910156 67.240234 L 29.107422 67.640625 L 28.951172 68.523438 L 29.5625 69.177734 L 29.910156 69.240234 L 30.710938 68.837891 L 30.869141 67.957031 L 30.255859 67.300781 L 29.910156 67.240234 z M 48.433594 67.791016 L 47.632812 68.193359 L 47.474609 69.074219 L 48.085938 69.728516 L 48.433594 69.791016 L 49.234375 69.390625 L 49.392578 68.507812 L 48.78125 67.853516 L 48.433594 67.791016 z"/></svg>