<svg fill="#ffffff" xmlns="http://www.w3.org/2000/svg" viewBox="0 0 50 50" width="50px" height="50px"><path d="M 7 2 C 5.347656 2 4 3.347656 4 5 L 4 6.117188 L 0.398438 9 L 4 11.878906 L 4 13 C 4 14.652344 5.347656 16 7 16 L 37 16 C 38.652344 16 40 14.652344 40 13 L 40 5 C 40 3.347656 38.652344 2 37 2 Z M 11 8 C 11.550781 8 12 8.449219 12 9 C 12 9.550781 11.550781 10 11 10 C 10.449219 10 10 9.550781 10 9 C 10 8.449219 10.449219 8 11 8 Z M 15 8 C 15.550781 8 16 8.449219 16 9 C 16 9.550781 15.550781 10 15 10 C 14.449219 10 14 9.550781 14 9 C 14 8.449219 14.449219 8 15 8 Z M 19 8 C 19.550781 8 20 8.449219 20 9 C 20 9.550781 19.550781 10 19 10 C 18.449219 10 18 9.550781 18 9 C 18 8.449219 18.449219 8 19 8 Z M 23 8 C 23.550781 8 24 8.449219 24 9 C 24 9.550781 23.550781 10 23 10 C 22.449219 10 22 9.550781 22 9 C 22 8.449219 22.449219 8 23 8 Z M 27 8 C 27.550781 8 28 8.449219 28 9 C 28 9.550781 27.550781 10 27 10 C 26.449219 10 26 9.550781 26 9 C 26 8.449219 26.449219 8 27 8 Z M 11 18 C 9.347656 18 8 19.347656 8 21 L 8 22.121094 L 4.398438 25 L 8 27.878906 L 8 29 C 8 30.652344 9.347656 32 11 32 L 41 32 C 42.652344 32 44 30.652344 44 29 L 44 21 C 44 19.347656 42.652344 18 41 18 Z M 15 24 C 15.550781 24 16 24.449219 16 25 C 16 25.550781 15.550781 26 15 26 C 14.449219 26 14 25.550781 14 25 C 14 24.449219 14.449219 24 15 24 Z M 19 24 C 19.550781 24 20 24.449219 20 25 C 20 25.550781 19.550781 26 19 26 C 18.449219 26 18 25.550781 18 25 C 18 24.449219 18.449219 24 19 24 Z M 23 24 C 23.550781 24 24 24.449219 24 25 C 24 25.550781 23.550781 26 23 26 C 22.449219 26 22 25.550781 22 25 C 22 24.449219 22.449219 24 23 24 Z M 15 34 C 13.347656 34 12 35.347656 12 37 L 12 38.121094 L 8.398438 41 L 12 43.878906 L 12 45 C 12 46.652344 13.347656 48 15 48 L 45 48 C 46.652344 48 48 46.652344 48 45 L 48 37 C 48 35.347656 46.652344 34 45 34 Z M 19 40 C 19.550781 40 20 40.449219 20 41 C 20 41.550781 19.550781 42 19 42 C 18.449219 42 18 41.550781 18 41 C 18 40.449219 18.449219 40 19 40 Z M 23 40 C 23.550781 40 24 40.449219 24 41 C 24 41.550781 23.550781 42 23 42 C 22.449219 42 22 41.550781 22 41 C 22 40.449219 22.449219 40 23 40 Z M 27 40 C 27.550781 40 28 40.449219 28 41 C 28 41.550781 27.550781 42 27 42 C 26.449219 42 26 41.550781 26 41 C 26 40.449219 26.449219 40 27 40 Z M 31 40 C 31.550781 40 32 40.449219 32 41 C 32 41.550781 31.550781 42 31 42 C 30.449219 42 30 41.550781 30 41 C 30 40.449219 30.449219 40 31 40 Z M 35 40 C 35.550781 40 36 40.449219 36 41 C 36 41.550781 35.550781 42 35 42 C 34.449219 42 34 41.550781 34 41 C 34 40.449219 34.449219 40 35 40 Z M 39 40 C 39.550781 40 40 40.449219 40 41 C 40 41.550781 39.550781 42 39 42 C 38.449219 42 38 41.550781 38 41 C 38 40.449219 38.449219 40 39 40 Z"/></svg>