<svg fill="#000000" xmlns="http://www.w3.org/2000/svg" viewBox="0 0 30 30" width="60px" height="60px"><path d="M 9 4 C 8.448 4 8 4.448 8 5 L 8 14 C 8 14.552 8.448 15 9 15 L 21 15 C 21.552 15 22 14.552 22 14 L 22 5 C 22 4.448 21.552 4 21 4 L 9 4 z M 19 6 C 19.552 6 20 6.448 20 7 C 20 7.552 19.552 8 19 8 C 18.448 8 18 7.552 18 7 C 18 6.448 18.448 6 19 6 z M 12 8.5019531 C 12.3095 8.5019531 12.618969 8.6194687 12.855469 8.8554688 L 14.486328 10.486328 L 15 11 L 15.578125 11.578125 C 15.789125 11.790125 16.128844 11.787172 16.339844 11.576172 C 16.551844 11.365172 16.551844 11.023547 16.339844 10.810547 L 15.765625 10.234375 L 16.144531 9.8554688 C 16.616531 9.3834688 17.382469 9.3834687 17.855469 9.8554688 L 20 12 L 20 13 L 10 13 L 10 10 L 11.144531 8.8554688 C 11.381031 8.6194687 11.6905 8.5019531 12 8.5019531 z M 5 15 A 2 2 0 0 0 3 17 A 2 2 0 0 0 4 18.730469 L 4 24 A 1.0001 1.0001 0 1 0 4 26 L 4.8320312 26 A 1.0001 1.0001 0 0 0 5.1582031 26 L 6 26 A 1.0001 1.0001 0 1 0 6 24 L 6 18.955078 C 7.6328903 20.210709 10.428403 22 15 22 C 19.571597 22 22.36711 20.210709 24 18.955078 L 24 24 A 1.0001 1.0001 0 1 0 24 26 L 24.832031 26 A 1.0001 1.0001 0 0 0 25.158203 26 L 26 26 A 1.0001 1.0001 0 1 0 26 24 L 26 18.728516 A 2 2 0 0 0 27 17 A 2 2 0 0 0 25 15 A 2 2 0 0 0 23 17 A 2 2 0 0 0 23.025391 17.3125 C 21.489751 18.410232 18.651524 20 15 20 C 11.347385 20 8.5079596 18.410258 6.9726562 17.3125 A 2 2 0 0 0 7 17 A 2 2 0 0 0 5 15 z"/></svg>