<svg xmlns="http://www.w3.org/2000/svg" viewBox="0 0 100 100" width="50px" height="50px"><path fill="#fefdef" d="M10,14h80v58H10V14z"/><path fill="#8e9cb3" d="M92,22H8v-8h84V22z M92,70H8v6h84V70z M46,86c0,2.208,1.792,4,4,4s4-1.792,4-4s-1.792-4-4-4 S46,83.792,46,86"/><rect width="2" height="48" x="9" y="22" fill="#1f212b"/><rect width="2" height="48" x="89" y="22" fill="#1f212b"/><path fill="#1f212b" d="M50,91c-2.757,0-5-2.243-5-5s2.243-5,5-5s5,2.243,5,5S52.757,91,50,91z M50,83 c-1.654,0-3,1.346-3,3s1.346,3,3,3s3-1.346,3-3S51.654,83,50,83z M92,77H8c-0.552,0-1-0.448-1-1v-6c0-0.552,0.448-1,1-1h84 c0.552,0,1,0.448,1,1v6C93,76.552,92.552,77,92,77z M9,75h82v-4H9V75z M92,23H8c-0.552,0-1-0.448-1-1v-8c0-0.552,0.448-1,1-1h84 c0.552,0,1,0.448,1,1v8C93,22.552,92.552,23,92,23z M9,21h82v-6H9V21z"/><path fill="#52bea0" d="M31.5,35.5c-7.732,0-14,6.268-14,14s6.268,14,14,14s14-6.268,14-14h-14V35.5z"/><path fill="#df5f80" d="M35.5,30.5v14h14C49.5,36.768,43.232,30.5,35.5,30.5z"/><path fill="#1f212b" d="M31.5,64C23.505,64,17,57.495,17,49.5S23.505,35,31.5,35c0.276,0,0.5,0.224,0.5,0.5V49h13.5 c0.276,0,0.5,0.224,0.5,0.5C46,57.495,39.495,64,31.5,64z M31,36.009c-7.213,0.264-13,6.214-13,13.491 C18,56.944,24.056,63,31.5,63c7.277,0,13.227-5.787,13.491-13H31.5c-0.276,0-0.5-0.224-0.5-0.5V36.009z"/><path fill="#1f212b" d="M49.5,45h-14c-0.276,0-0.5-0.224-0.5-0.5v-14c0-0.276,0.224-0.5,0.5-0.5 C43.495,30,50,36.505,50,44.5C50,44.776,49.776,45,49.5,45z M36,44h12.991C48.733,36.952,43.048,31.267,36,31.009V44z"/><path fill="#1f212b" d="M81.5,35h-23c-0.276,0-0.5-0.224-0.5-0.5s0.224-0.5,0.5-0.5h23c0.276,0,0.5,0.224,0.5,0.5 S81.776,35,81.5,35z"/><path fill="#1f212b" d="M72.5,42h-14c-0.276,0-0.5-0.224-0.5-0.5s0.224-0.5,0.5-0.5h14c0.276,0,0.5,0.224,0.5,0.5 S72.776,42,72.5,42z"/><path fill="#1f212b" d="M77.5,49h-19c-0.276,0-0.5-0.224-0.5-0.5s0.224-0.5,0.5-0.5h19c0.276,0,0.5,0.224,0.5,0.5 S77.776,49,77.5,49z"/><path fill="#1f212b" d="M81.5,56h-3c-0.276,0-0.5-0.224-0.5-0.5s0.224-0.5,0.5-0.5h3c0.276,0,0.5,0.224,0.5,0.5 S81.776,56,81.5,56z"/><path fill="#1f212b" d="M74.5,56h-16c-0.276,0-0.5-0.224-0.5-0.5s0.224-0.5,0.5-0.5h16c0.276,0,0.5,0.224,0.5,0.5 S74.776,56,74.5,56z"/><rect width="2" height="6" x="49" y="76" fill="#1f212b"/></svg>