<svg xmlns="http://www.w3.org/2000/svg" viewBox="0 0 64 64" width="50px" height="50px"><linearGradient id="4v_jbGbF~Ri59larO7~gVa" x1="30" x2="30" y1="14.021" y2="15.703" gradientUnits="userSpaceOnUse"><stop offset="0" stop-color="#6dc7ff"/><stop offset="1" stop-color="#e6abff"/></linearGradient><circle cx="30" cy="15" r="1" fill="url(#4v_jbGbF~Ri59larO7~gVa)"/><linearGradient id="4v_jbGbF~Ri59larO7~gVb" x1="34" x2="34" y1="14.021" y2="15.703" gradientUnits="userSpaceOnUse"><stop offset="0" stop-color="#6dc7ff"/><stop offset="1" stop-color="#e6abff"/></linearGradient><circle cx="34" cy="15" r="1" fill="url(#4v_jbGbF~Ri59larO7~gVb)"/><linearGradient id="4v_jbGbF~Ri59larO7~gVc" x1="32" x2="32" y1="33.511" y2="35.992" gradientUnits="userSpaceOnUse"><stop offset="0" stop-color="#6dc7ff"/><stop offset="1" stop-color="#e6abff"/></linearGradient><rect width="34" height="2" x="15" y="34" fill="url(#4v_jbGbF~Ri59larO7~gVc)"/><linearGradient id="4v_jbGbF~Ri59larO7~gVd" x1="32" x2="32" y1="3.851" y2="57.419" gradientUnits="userSpaceOnUse"><stop offset="0" stop-color="#1a6dff"/><stop offset="1" stop-color="#c822ff"/></linearGradient><path fill="url(#4v_jbGbF~Ri59larO7~gVd)" d="M50,30.005V26c0-1.5-0.84-2.794-2.064-3.479C47.719,21.65,46.937,21,46,21 c-1.103,0-2,0.897-2,2s0.897,2,2,2c0.503,0,0.957-0.193,1.309-0.5C47.729,24.867,48,25.4,48,26v4h-3.178 c-0.604-3.915-2.928-7.29-6.375-9.261c0.792-1.076,1.321-2.354,1.489-3.745C39.958,16.994,39.978,17,39.999,17 c0.53,0,1.04-0.21,1.41-0.59c0.38-0.38,0.59-0.88,0.59-1.41s-0.21-1.04-0.59-1.409c-0.091-0.1-0.19-0.18-0.301-0.25 c-0.109-0.07-0.22-0.14-0.349-0.19c-0.12-0.05-0.24-0.09-0.37-0.109c-0.151-0.035-0.301-0.041-0.452-0.035 C39.46,9.066,36.095,6,31.967,6c-4.067,0-7.427,3.066-7.903,7.007c-0.151-0.004-0.303,0.005-0.455,0.035 c-0.13,0.02-0.26,0.06-0.38,0.109c-0.12,0.051-0.229,0.12-0.34,0.19c-0.109,0.07-0.21,0.15-0.3,0.25C22.21,13.961,22,14.47,22,15 s0.21,1.03,0.59,1.41c0.37,0.38,0.879,0.59,1.409,0.59c0.022,0,0.043-0.006,0.065-0.006c0.168,1.391,0.698,2.669,1.49,3.746 c-3.407,1.957-5.766,5.376-6.373,9.261H16v-4c0-0.6,0.271-1.133,0.691-1.5C17.043,24.807,17.497,25,18,25c1.103,0,2-0.897,2-2 s-0.897-2-2-2c-0.937,0-1.719,0.65-1.936,1.521C14.84,23.206,14,24.5,14,26v4.005c-1.658,0.028-3,1.382-3,3.047v3.896 C11,38.631,12.369,40,14.052,40h1.509l1.959,13.707C17.869,56.154,19.997,58,22.469,58h19.063c2.472,0,4.6-1.846,4.949-4.293 L48.439,40h1.509C51.631,40,53,38.631,53,36.948v-3.896C53,31.387,51.658,30.034,50,30.005z M31.967,24h0.066 c1.893,0,3.632-0.666,5-1.773c0.588,0.303,1.131,0.662,1.645,1.055C36.917,25.019,34.542,26,31.95,26 c-2.492,0-4.859-0.986-6.621-2.719c0.514-0.395,1.063-0.745,1.648-1.047C28.344,23.336,30.078,24,31.967,24z M26,13.967 C26,10.677,28.677,8,32.033,8C35.323,8,38,10.677,38,13.967v2.066C38,19.323,35.323,22,32.033,22h-0.066 C28.677,22,26,19.323,26,16.033V13.967z M23.852,24.626C25.996,26.774,28.902,28,32.05,28c3.074,0,5.971-1.225,8.113-3.381 c1.356,1.494,2.264,3.35,2.636,5.381H21.204C21.578,27.985,22.498,26.125,23.852,24.626z M44.5,53.424 C44.291,54.893,43.015,56,41.531,56H22.469c-1.483,0-2.76-1.107-2.969-2.576L17.582,40h28.837L44.5,53.424z M51,36.948 C51,37.528,50.528,38,49.948,38H14.052C13.472,38,13,37.528,13,36.948v-3.896C13,32.472,13.472,32,14.052,32h35.896 C50.528,32,51,32.472,51,33.052V36.948z"/><linearGradient id="4v_jbGbF~Ri59larO7~gVe" x1="32" x2="32" y1="3.851" y2="57.419" gradientUnits="userSpaceOnUse"><stop offset="0" stop-color="#1a6dff"/><stop offset="1" stop-color="#c822ff"/></linearGradient><rect width="16" height="2" x="24" y="52" fill="url(#4v_jbGbF~Ri59larO7~gVe)"/><linearGradient id="4v_jbGbF~Ri59larO7~gVf" x1="32" x2="32" y1="17.681" y2="19.835" gradientUnits="userSpaceOnUse"><stop offset="0" stop-color="#6dc7ff"/><stop offset="1" stop-color="#e6abff"/></linearGradient><path fill="url(#4v_jbGbF~Ri59larO7~gVf)" d="M32,20L32,20c-1.105,0-2-0.895-2-2v0h4v0C34,19.105,33.105,20,32,20z"/></svg>