<svg xmlns="http://www.w3.org/2000/svg" viewBox="0 0 64 64" width="50px" height="50px"><linearGradient id="JpC8cXs_aERnsvC8~UY90a" x1="44.002" x2="44.002" y1="7.426" y2="56.987" gradientUnits="userSpaceOnUse"><stop offset="0" stop-color="#1a6dff"/><stop offset="1" stop-color="#c822ff"/></linearGradient><path fill="url(#JpC8cXs_aERnsvC8~UY90a)" d="M52.219,35.781L48,30.642V26c0-7.168-6-13-13-13v2c6,0,11,4.935,11,11v5.358l4.726,5.751 c0.428,0.445,0.24,0.999,0.171,1.158C50.824,38.439,50.531,39,49.827,39H46v6h-4.003C41.446,45,41,44.552,41,44v-1h-2v1 c0,1.654,1.343,3,2.997,3H46v1c0,1.654-1.348,3-3.003,3h-5C36.343,51,35,52.346,35,54v4h2v-4c0-0.552,0.446-1,0.997-1h5 C45.754,53,48,50.757,48,48v-1v-1v-5h1.827c1.283,0,2.4-0.747,2.912-1.949C53.235,37.882,53.017,36.606,52.219,35.781z"/><linearGradient id="JpC8cXs_aERnsvC8~UY90b" x1="20.5" x2="20.5" y1="7.426" y2="56.987" gradientUnits="userSpaceOnUse"><stop offset="0" stop-color="#1a6dff"/><stop offset="1" stop-color="#c822ff"/></linearGradient><path fill="url(#JpC8cXs_aERnsvC8~UY90b)" d="M24,46v-4h-3.003C19.343,42,18,40.645,18,38.979V35c0-0.561,0.428-1,0.977-1h2.042 C21.559,34,22,34.439,22,34.979V36h2v-1.021C24,33.337,22.661,32,21.019,32H20v-2h-2v2.18c-1,0.41-2,1.513-2,2.82v3.979 c0,1.634,1,3.073,2,3.991V49h-1.003C15.343,49,14,47.654,14,46V28h-2v18c0,2.757,2.241,5,4.997,5H18v7h2V43.898 C20,43.965,20.655,44,20.997,44H22v2c0,3.859,3,7,7,7v-2C26,51,24,48.757,24,46z"/><linearGradient id="JpC8cXs_aERnsvC8~UY90c" x1="41" x2="41" y1="7.426" y2="56.987" gradientUnits="userSpaceOnUse"><stop offset="0" stop-color="#1a6dff"/><stop offset="1" stop-color="#c822ff"/></linearGradient><polygon fill="url(#JpC8cXs_aERnsvC8~UY90c)" points="43,36 43,31 44,31 44,29 42.997,29 40.997,29 38,29 38,31 41,31 41,36"/><linearGradient id="JpC8cXs_aERnsvC8~UY90d" x1="22" x2="22" y1="7.426" y2="56.987" gradientUnits="userSpaceOnUse"><stop offset="0" stop-color="#1a6dff"/><stop offset="1" stop-color="#c822ff"/></linearGradient><path fill="url(#JpC8cXs_aERnsvC8~UY90d)" d="M31,15h-0.523c-0.106-0.297-0.224-0.589-0.36-0.874l0.369-0.369 c0.566-0.566,0.878-1.319,0.878-2.121c0-0.801-0.312-1.555-0.878-2.121c-1.171-1.171-3.074-1.17-4.243,0l-0.368,0.369 C25.589,9.747,25.297,9.63,25,9.525V9c0-1.654-1.346-3-3-3s-3,1.346-3,3v0.525c-0.297,0.104-0.589,0.222-0.874,0.358l-0.369-0.369 c-1.171-1.171-3.074-1.17-4.243,0c-0.566,0.566-0.878,1.32-0.878,2.121c0,0.802,0.312,1.555,0.878,2.121l0.369,0.369 c-0.137,0.285-0.255,0.578-0.36,0.874H13c-1.654,0-3,1.346-3,3s1.346,3,3,3h0.523c0.106,0.297,0.224,0.589,0.36,0.874l-0.369,0.368 c-1.169,1.17-1.169,3.073,0,4.243c0.585,0.585,1.353,0.877,2.121,0.877c0.769,0,1.537-0.292,2.122-0.877l0.369-0.369 c0.285,0.136,0.577,0.254,0.874,0.358V27c0,1.654,1.346,3,3,3s3-1.346,3-3v-0.526c0.296-0.104,0.589-0.222,0.874-0.358l0.369,0.369 c1.17,1.17,3.073,1.169,4.243,0c1.169-1.17,1.169-3.073,0-4.243l-0.369-0.368c0.137-0.285,0.255-0.578,0.36-0.874H31 c1.654,0,3-1.346,3-3S32.654,15,31,15z M21,9c0-0.552,0.449-1,1-1s1,0.448,1,1v0.069c-0.664-0.073-1.336-0.073-2,0V9z M13,19 c-0.551,0-1-0.448-1-1s0.449-1,1-1h0.057C13.019,17.331,13,17.665,13,18s0.019,0.669,0.057,1H13z M23,27c0,0.552-0.449,1-1,1 s-1-0.448-1-1v-0.069c0.664,0.073,1.336,0.073,2,0V27z M28.025,14.451C28.663,15.53,29,16.758,29,18s-0.337,2.47-0.975,3.549 l-0.395,0.668l1.44,1.439c0.39,0.39,0.39,1.025,0,1.415c-0.391,0.39-1.024,0.392-1.414,0l-1.44-1.44l-0.667,0.394 c-2.162,1.277-4.937,1.277-7.099,0l-0.667-0.394l-1.44,1.44c-0.391,0.39-1.024,0.392-1.414,0c-0.39-0.39-0.39-1.025,0-1.415 l1.44-1.439l-0.395-0.668C15.337,20.47,15,19.242,15,18s0.337-2.47,0.975-3.549l0.395-0.668l-1.44-1.44 c-0.189-0.188-0.292-0.439-0.292-0.707c0-0.267,0.104-0.519,0.292-0.707c0.195-0.195,0.451-0.292,0.708-0.292 c0.256,0,0.512,0.097,0.707,0.292l1.441,1.441l0.667-0.396c2.158-1.275,4.939-1.275,7.098,0l0.667,0.396l1.44-1.441 c0.391-0.391,1.024-0.391,1.414,0c0.189,0.188,0.293,0.44,0.293,0.707c0,0.268-0.104,0.519-0.293,0.707l-1.44,1.44L28.025,14.451z M31,19h-0.057C30.981,18.669,31,18.335,31,18s-0.019-0.669-0.057-1H31c0.551,0,1,0.448,1,1S31.551,19,31,19z"/><linearGradient id="JpC8cXs_aERnsvC8~UY90e" x1="22" x2="22" y1="7.426" y2="56.987" gradientUnits="userSpaceOnUse"><stop offset="0" stop-color="#1a6dff"/><stop offset="1" stop-color="#c822ff"/></linearGradient><path fill="url(#JpC8cXs_aERnsvC8~UY90e)" d="M22,13c-2.757,0-5,2.243-5,5s2.243,5,5,5s5-2.243,5-5S24.757,13,22,13z M22,21 c-1.654,0-3-1.346-3-3s1.346-3,3-3s3,1.346,3,3S23.654,21,22,21z"/><linearGradient id="JpC8cXs_aERnsvC8~UY90f" x1="22" x2="22" y1="16.149" y2="20.298" gradientUnits="userSpaceOnUse"><stop offset="0" stop-color="#6dc7ff"/><stop offset="1" stop-color="#e6abff"/></linearGradient><circle cx="22" cy="18" r="2" fill="url(#JpC8cXs_aERnsvC8~UY90f)"/></svg>