<svg fill="#ffffff" xmlns="http://www.w3.org/2000/svg" viewBox="0 0 64 64" width="50px" height="50px"><path d="M 32 0 C 28.691406 0 26 2.691406 26 6 C 26 9.308594 28.691406 12 32 12 C 35.308594 12 38 9.308594 38 6 C 38 2.691406 35.308594 0 32 0 Z M 32 2 C 34.207031 2 36 3.792969 36 6 C 36 8.207031 34.207031 10 32 10 C 29.792969 10 28 8.207031 28 6 C 28 3.792969 29.792969 2 32 2 Z M 17 4 C 14.242188 4 12 6.242188 12 9 C 12 11.757813 14.242188 14 17 14 C 19.757813 14 22 11.757813 22 9 C 22 6.242188 19.757813 4 17 4 Z M 47 4 C 44.242188 4 42 6.242188 42 9 C 42 11.757813 44.242188 14 47 14 C 49.757813 14 52 11.757813 52 9 C 52 6.242188 49.757813 4 47 4 Z M 17 6 C 18.652344 6 20 7.347656 20 9 C 20 10.652344 18.652344 12 17 12 C 15.347656 12 14 10.652344 14 9 C 14 7.347656 15.347656 6 17 6 Z M 47 6 C 48.652344 6 50 7.347656 50 9 C 50 10.652344 48.652344 12 47 12 C 45.347656 12 44 10.652344 44 9 C 44 7.347656 45.347656 6 47 6 Z M 31.945313 13 C 30.546875 13.003906 29.148438 13.199219 27.789063 13.589844 C 25.980469 14.109375 24.347656 15.070313 23.039063 16.390625 C 22.390625 16.03125 21.691406 15.75 20.960938 15.539063 C 20.921875 15.527344 20.859375 15.519531 20.800781 15.511719 C 18.300781 14.820313 15.671875 14.828125 13.171875 15.539063 C 11.140625 16.117188 9.371094 17.300781 8.050781 18.949219 C 6.898438 20.390625 6.195313 22.160156 6.035156 24 L 3 24 C 1.347656 24 0 25.347656 0 27 L 0 57 C 0 58.652344 1.347656 60 3 60 L 61 60 C 62.652344 60 64 58.652344 64 57 L 64 27 C 64 25.347656 62.652344 24 61 24 L 58.105469 24 C 57.945313 22.160156 57.242188 20.390625 56.089844 18.949219 C 54.769531 17.300781 52.992188 16.117188 50.960938 15.539063 C 50.921875 15.527344 50.859375 15.519531 50.800781 15.511719 C 48.300781 14.820313 45.671875 14.828125 43.171875 15.539063 C 42.421875 15.75 41.710938 16.050781 41.050781 16.421875 C 39.730469 15.078125 38.097656 14.109375 36.269531 13.589844 C 36.230469 13.578125 36.167969 13.570313 36.097656 13.5625 C 34.738281 13.179688 33.34375 12.992188 31.945313 13 Z M 32 15 C 33.230469 15 34.460938 15.167969 35.660156 15.511719 C 35.699219 15.519531 35.761719 15.527344 35.820313 15.539063 C 37.171875 15.9375 38.378906 16.640625 39.390625 17.578125 C 39.710938 17.871094 40 18.199219 40.28125 18.539063 C 40.417969 18.71875 40.558594 18.910156 40.6875 19.097656 C 41.578125 20.429688 42.070313 22.019531 42.070313 23.640625 L 42.070313 24 L 22 24 L 22 23.640625 C 22 22 22.488281 20.402344 23.410156 19.0625 C 23.53125 18.878906 23.660156 18.710938 23.789063 18.539063 C 24.070313 18.1875 24.382813 17.859375 24.710938 17.550781 C 25.742188 16.601563 26.980469 15.898438 28.339844 15.511719 C 29.539063 15.167969 30.769531 15 32 15 Z M 17.035156 17 C 18.152344 17 19.265625 17.15625 20.347656 17.460938 C 20.390625 17.480469 20.449219 17.488281 20.511719 17.488281 C 20.929688 17.621094 21.339844 17.78125 21.730469 17.96875 C 20.609375 19.640625 20 21.621094 20 23.640625 L 20 24 L 8.070313 24 C 8.21875 22.617188 8.738281 21.289063 9.609375 20.199219 C 10.667969 18.878906 12.089844 17.929688 13.730469 17.460938 C 14.808594 17.15625 15.921875 17 17.035156 17 Z M 47.035156 17 C 48.152344 17 49.265625 17.15625 50.347656 17.460938 C 50.390625 17.480469 50.449219 17.488281 50.511719 17.488281 C 52.101563 17.96875 53.488281 18.898438 54.53125 20.199219 C 55.402344 21.289063 55.921875 22.617188 56.074219 24 L 44.070313 24 L 44.070313 23.640625 C 44.070313 21.628906 43.46875 19.660156 42.347656 18 C 42.789063 17.78125 43.25 17.601563 43.730469 17.460938 C 44.808594 17.15625 45.921875 17 47.035156 17 Z M 3 26 L 61 26 C 61.550781 26 62 26.449219 62 27 L 62 57 C 62 57.550781 61.550781 58 61 58 L 3 58 C 2.449219 58 2 57.550781 2 57 L 2 27 C 2 26.449219 2.449219 26 3 26 Z M 17 29 C 16.449219 29 16 29.449219 16 30 L 16 32 C 16 32.550781 16.449219 33 17 33 C 17.550781 33 18 32.550781 18 32 L 18 30 C 18 29.449219 17.550781 29 17 29 Z M 22 29 C 21.449219 29 21 29.449219 21 30 L 21 32 C 21 32.550781 21.449219 33 22 33 C 22.550781 33 23 32.550781 23 32 L 23 30 C 23 29.449219 22.550781 29 22 29 Z M 27 29 C 26.449219 29 26 29.449219 26 30 L 26 32 C 26 32.382813 26.222656 32.703125 26.535156 32.871094 C 23.921875 34.847656 22.199219 38.203125 22.199219 42 C 22.199219 45.796875 23.921875 49.152344 26.535156 51.128906 C 26.222656 51.296875 26 51.617188 26 52 L 26 54 C 26 54.550781 26.449219 55 27 55 C 27.550781 55 28 54.550781 28 54 L 28 52.03125 C 28.933594 52.503906 29.941406 52.824219 31 52.941406 L 31 54 C 31 54.550781 31.449219 55 32 55 C 32.550781 55 33 54.550781 33 54 L 33 52.941406 C 34.058594 52.824219 35.066406 52.503906 36 52.03125 L 36 54 C 36 54.550781 36.449219 55 37 55 C 37.550781 55 38 54.550781 38 54 L 38 52 C 38 51.617188 37.777344 51.296875 37.464844 51.128906 C 40.078125 49.152344 41.800781 45.796875 41.800781 42 C 41.800781 38.203125 40.078125 34.847656 37.464844 32.871094 C 37.777344 32.703125 38 32.382813 38 32 L 38 30 C 38 29.449219 37.550781 29 37 29 C 36.449219 29 36 29.449219 36 30 L 36 31.96875 C 35.066406 31.496094 34.058594 31.175781 33 31.058594 L 33 30 C 33 29.449219 32.550781 29 32 29 C 31.449219 29 31 29.449219 31 30 L 31 31.058594 C 29.941406 31.175781 28.933594 31.496094 28 31.96875 L 28 30 C 28 29.449219 27.550781 29 27 29 Z M 42 29 C 41.449219 29 41 29.449219 41 30 L 41 32 C 41 32.550781 41.449219 33 42 33 C 42.550781 33 43 32.550781 43 32 L 43 30 C 43 29.449219 42.550781 29 42 29 Z M 47 29 C 46.449219 29 46 29.449219 46 30 L 46 32 C 46 32.550781 46.449219 33 47 33 C 47.550781 33 48 32.550781 48 32 L 48 30 C 48 29.449219 47.550781 29 47 29 Z M 7 30 C 6.449219 30 6 30.449219 6 31 C 6 31.550781 6.449219 32 7 32 L 12 32 C 12.550781 32 13 31.550781 13 31 C 13 30.449219 12.550781 30 12 30 Z M 52 30 C 51.449219 30 51 30.449219 51 31 C 51 31.550781 51.449219 32 52 32 L 57 32 C 57.550781 32 58 31.550781 58 31 C 58 30.449219 57.550781 30 57 30 Z M 32 33 C 36.300781 33 39.800781 37.039063 39.800781 42 C 39.800781 46.960938 36.300781 51 32 51 C 27.699219 51 24.199219 46.960938 24.199219 42 C 24.199219 37.039063 27.699219 33 32 33 Z M 9 38 C 6.792969 38 5 39.792969 5 42 C 5 44.207031 6.792969 46 9 46 C 11.207031 46 13 44.207031 13 42 C 13 39.792969 11.207031 38 9 38 Z M 55 38 C 52.792969 38 51 39.792969 51 42 C 51 44.207031 52.792969 46 55 46 C 57.207031 46 59 44.207031 59 42 C 59 39.792969 57.207031 38 55 38 Z M 55 39.6875 C 56.273438 39.6875 57.3125 40.726563 57.3125 42 C 57.3125 43.273438 56.273438 44.3125 55 44.3125 C 53.726563 44.3125 52.6875 43.273438 52.6875 42 C 52.6875 40.726563 53.726563 39.6875 55 39.6875 Z M 9 39.707031 C 10.265625 39.707031 11.292969 40.734375 11.292969 42 C 11.292969 43.265625 10.265625 44.292969 9 44.292969 C 7.734375 44.292969 6.707031 43.265625 6.707031 42 C 6.707031 40.734375 7.734375 39.707031 9 39.707031 Z M 17 51 C 16.449219 51 16 51.449219 16 52 L 16 54 C 16 54.550781 16.449219 55 17 55 C 17.550781 55 18 54.550781 18 54 L 18 52 C 18 51.449219 17.550781 51 17 51 Z M 22 51 C 21.449219 51 21 51.449219 21 52 L 21 54 C 21 54.550781 21.449219 55 22 55 C 22.550781 55 23 54.550781 23 54 L 23 52 C 23 51.449219 22.550781 51 22 51 Z M 42 51 C 41.449219 51 41 51.449219 41 52 L 41 54 C 41 54.550781 41.449219 55 42 55 C 42.550781 55 43 54.550781 43 54 L 43 52 C 43 51.449219 42.550781 51 42 51 Z M 47 51 C 46.449219 51 46 51.449219 46 52 L 46 54 C 46 54.550781 46.449219 55 47 55 C 47.550781 55 48 54.550781 48 54 L 48 52 C 48 51.449219 47.550781 51 47 51 Z M 7 52 C 6.449219 52 6 52.449219 6 53 C 6 53.550781 6.449219 54 7 54 L 12 54 C 12.550781 54 13 53.550781 13 53 C 13 52.449219 12.550781 52 12 52 Z M 52 52 C 51.449219 52 51 52.449219 51 53 C 51 53.550781 51.449219 54 52 54 L 57 54 C 57.550781 54 58 53.550781 58 53 C 58 52.449219 57.550781 52 57 52 Z"/></svg>